<svg width="218" height="126" viewBox="0 0 218 126" fill="none" xmlns="http://www.w3.org/2000/svg">
<path d="M214.669 112.326C192.698 112.326 178.327 102.384 160.088 99.0674C138.985 95.2306 123.752 111.855 117.629 120.695C116.76 121.95 115.357 122.736 113.83 122.736H108.961" stroke="black" stroke-width="6" stroke-linecap="round"/>
<path d="M175.579 71.212C180.987 73.1209 190.05 73.0629 192.933 72.7704C193.14 72.7494 193.34 72.8401 193.458 73.0116L204.105 88.5252L214.351 103.453C214.603 103.82 214.346 104.302 213.902 104.273C211.106 104.089 202.71 103.165 188.982 98.5149C175.579 93.975 163.471 86.8826 146.976 89.8095C130.04 92.8146 120.721 99.6203 108.838 113.576" stroke="black" stroke-width="6" stroke-linecap="round"/>
<path d="M3 112.326C24.9706 112.326 39.3413 102.384 57.5811 99.0675C77.91 95.3713 92.7923 110.664 99.3295 119.693C100.672 121.548 102.776 122.736 105.066 122.736H108.708" stroke="black" stroke-width="6" stroke-linecap="round"/>
<path d="M42.0895 71.2121C36.6811 73.1209 27.6189 73.063 24.7352 72.7704C24.5282 72.7494 24.3283 72.8401 24.2105 73.0117L13.563 88.5253L3.31759 103.453C3.06586 103.82 3.32236 104.302 3.76624 104.273C6.56205 104.089 14.9581 103.165 28.686 98.5149C42.0895 93.975 54.1972 86.8827 70.6927 89.8096C87.6288 92.8146 96.947 99.6204 108.83 113.577" stroke="black" stroke-width="6" stroke-linecap="round"/>
<path d="M30.5582 45.3001V51.0001" stroke="black" stroke-width="6" stroke-linecap="round"/>
<path d="M43.5582 25.8001C43.5582 42.7879 43.5582 53.5123 43.5582 70.5001" stroke="black" stroke-width="6" stroke-linecap="round"/>
<path d="M56.5581 39.1501C56.5581 46.1795 56.5581 50.1206 56.5581 57.1501" stroke="black" stroke-width="6" stroke-linecap="round"/>
<path d="M69.5582 28.8001V67.5001" stroke="black" stroke-width="6" stroke-linecap="round"/>
<path d="M82.5582 34.9501L82.5582 61.3501" stroke="black" stroke-width="6" stroke-linecap="round"/>
<path d="M95.5581 19.7001V76.6001" stroke="black" stroke-width="6" stroke-linecap="round"/>
<path d="M108.558 5.00006V91.3001" stroke="black" stroke-width="6" stroke-linecap="round"/>
<path d="M121.558 27.8V68.5" stroke="black" stroke-width="6" stroke-linecap="round"/>
<path d="M134.558 33.9001V62.4001" stroke="black" stroke-width="6" stroke-linecap="round"/>
<path d="M147.558 21.7501V74.5501" stroke="black" stroke-width="6" stroke-linecap="round"/>
<path d="M160.558 38.2501V58.0501" stroke="black" stroke-width="6" stroke-linecap="round"/>
<path d="M173.558 25.3501L173.558 70.9501" stroke="black" stroke-width="6" stroke-linecap="round"/>
<path d="M186.558 44.8501V51.4501" stroke="black" stroke-width="6" stroke-linecap="round"/>
</svg>
